<svg width="46" height="46" viewBox="0 0 46 46" fill="none" xmlns="http://www.w3.org/2000/svg">
<circle cx="23" cy="23" r="23" fill="#467AFF"/>
<path d="M12.9091 23.0002C12.9091 20.8698 14.6408 19.1381 16.7712 19.1381H21.7545V16.771H16.7712C13.3327 16.771 10.542 19.5617 10.542 23.0002C10.542 26.4387 13.3327 29.2293 16.7712 29.2293H21.7545V26.8622H16.7712C14.6408 26.8622 12.9091 25.1305 12.9091 23.0002ZM18.017 24.246H27.9837V21.7543H18.017V24.246ZM29.2295 16.771H24.2462V19.1381H29.2295C31.3599 19.1381 33.0916 20.8698 33.0916 23.0002C33.0916 25.1305 31.3599 26.8622 29.2295 26.8622H24.2462V29.2293H29.2295C32.668 29.2293 35.4587 26.4387 35.4587 23.0002C35.4587 19.5617 32.668 16.771 29.2295 16.771Z" fill="white"/>
</svg>
