<svg width="46" height="46" viewBox="0 0 46 46" fill="none" xmlns="http://www.w3.org/2000/svg">
<path fill-rule="evenodd" clip-rule="evenodd" d="M46 23C46 35.7025 35.7025 46 23 46C10.2975 46 0 35.7025 0 23C0 10.2975 10.2975 0 23 0C35.7025 0 46 10.2975 46 23ZM21.4235 12.2489C22.4877 11.1917 24.0038 10.6567 25.7588 10.6567C27.324 10.6567 29.036 10.7845 29.5102 10.8474C29.6392 10.8645 29.7575 10.9277 29.8433 11.0255C29.9291 11.1232 29.9765 11.2488 29.9767 11.3789V15.4867C29.9767 15.629 29.9201 15.7655 29.8195 15.8661C29.7188 15.9668 29.5823 16.0233 29.44 16.0233H26.22C25.6207 16.0233 25.1467 16.4974 25.1467 17.0967V19.2433H29.44C29.5161 19.2433 29.5914 19.2595 29.6608 19.2909C29.7302 19.3222 29.7921 19.3679 29.8425 19.425C29.8929 19.4821 29.9305 19.5493 29.9529 19.6221C29.9753 19.6948 29.982 19.7715 29.9725 19.8471L29.4358 24.1404C29.4195 24.2701 29.3563 24.3894 29.2583 24.4758C29.1603 24.5623 29.034 24.61 28.9033 24.61H25.1467V34.8067C25.1467 34.949 25.0901 35.0855 24.9895 35.1861C24.8888 35.2868 24.7523 35.3433 24.61 35.3433H20.3167C20.1743 35.3433 20.0378 35.2868 19.9372 35.1861C19.8366 35.0855 19.78 34.949 19.78 34.8067V24.61H16.56C16.4177 24.61 16.2812 24.5534 16.1805 24.4528C16.0799 24.3522 16.0233 24.2157 16.0233 24.0733V19.78C16.0233 19.6377 16.0799 19.5012 16.1805 19.4005C16.2812 19.2999 16.4177 19.2434 16.56 19.2433H19.78V16.7571C19.78 14.8555 20.3594 13.306 21.4235 12.2489Z" fill="#3765A3"/>
<path fill-rule="evenodd" clip-rule="evenodd" d="M46 23C46 35.7025 35.7025 46 23 46C10.2975 46 0 35.7025 0 23C0 10.2975 10.2975 0 23 0C35.7025 0 46 10.2975 46 23ZM21.4235 12.2489C22.4877 11.1917 24.0038 10.6567 25.7588 10.6567C27.324 10.6567 29.036 10.7845 29.5102 10.8474C29.6392 10.8645 29.7575 10.9277 29.8433 11.0255C29.9291 11.1232 29.9765 11.2488 29.9767 11.3789V15.4867C29.9767 15.629 29.9201 15.7655 29.8195 15.8661C29.7188 15.9668 29.5823 16.0233 29.44 16.0233H26.22C25.6207 16.0233 25.1467 16.4974 25.1467 17.0967V19.2433H29.44C29.5161 19.2433 29.5914 19.2595 29.6608 19.2909C29.7302 19.3222 29.7921 19.3679 29.8425 19.425C29.8929 19.4821 29.9305 19.5493 29.9529 19.6221C29.9753 19.6948 29.982 19.7715 29.9725 19.8471L29.4358 24.1404C29.4195 24.2701 29.3563 24.3894 29.2583 24.4758C29.1603 24.5623 29.034 24.61 28.9033 24.61H25.1467V34.8067C25.1467 34.949 25.0901 35.0855 24.9895 35.1861C24.8888 35.2868 24.7523 35.3433 24.61 35.3433H20.3167C20.1743 35.3433 20.0378 35.2868 19.9372 35.1861C19.8366 35.0855 19.78 34.949 19.78 34.8067V24.61H16.56C16.4177 24.61 16.2812 24.5534 16.1805 24.4528C16.0799 24.3522 16.0233 24.2157 16.0233 24.0733V19.78C16.0233 19.6377 16.0799 19.5012 16.1805 19.4005C16.2812 19.2999 16.4177 19.2434 16.56 19.2433H19.78V16.7571C19.78 14.8555 20.3594 13.306 21.4235 12.2489Z" fill="#3765A3"/>
</svg>
