<svg width="14" height="20" viewBox="0 0 14 20" fill="none" xmlns="http://www.w3.org/2000/svg">
<path d="M1.957 2.62966C3.03585 2.04942 5.2613 0.888924 5.53227 0.888924H9.03227C9.29571 0.888924 10.914 1.74078 11.328 2.18522C11.6592 2.54078 12.4695 4.08645 12.8333 4.81485L13.3226 7.48151L11.328 13.7408L7.79033 18.926L5.87098 18.2963L2.74732 14.1852L0.865601 8.85189V5.51855C0.865601 5.28152 1.5932 3.49386 1.957 2.62966Z" fill="#D83A3A"/>
<path fill-rule="evenodd" clip-rule="evenodd" d="M0 6.81938C-1.61591e-06 10.0088 4.5897 20 6.97338 20C9.35705 20 14 10.2731 14 6.81938C14 3.36564 11.3673 -1.92192e-06 6.97338 0C2.57947 1.92192e-06 1.61591e-06 3.62996 0 6.81938ZM6.97857 18.0819C5.06 18.0819 1.36585 9.57607 1.36585 7.00528C1.36585 4.43449 3.44202 1.50862 6.97857 1.50862C10.5151 1.50862 12.6341 4.22144 12.6341 7.00528C12.6341 9.78912 8.89714 18.0819 6.97857 18.0819Z" fill="#D83A3A"/>
<circle cx="7" cy="7" r="3" fill="white"/>
</svg>
