<svg width="45" height="64" viewBox="0 0 45 64" fill="none" xmlns="http://www.w3.org/2000/svg">
<g clip-path="url(#clip0)">
<path d="M6.29054 8.41486C9.75827 6.55806 16.9115 2.84448 17.7825 2.84448H29.0325C29.8793 2.84448 35.0809 5.57042 36.4116 6.99262C37.4762 8.13042 40.0807 13.0766 41.2501 15.4074L42.8228 23.9408L36.4116 43.9705L25.0405 60.5632L18.8712 58.5481L8.83085 45.3926L2.78247 28.326V17.6593C2.78247 16.9008 5.12118 11.1803 6.29054 8.41486Z" fill="#D83A3A"/>
<path fill-rule="evenodd" clip-rule="evenodd" d="M0 21.822C-5.194e-06 32.0282 14.7526 64 22.4144 64C30.0762 64 45 32.8739 45 21.822C45 10.77 36.5377 -6.15014e-06 22.4144 0C8.29115 6.15015e-06 5.194e-06 11.6159 0 21.822ZM22.4311 57.8621C16.2643 57.8621 4.39023 30.6434 4.39023 22.4169C4.39023 14.1904 11.0636 4.82758 22.4311 4.82758C33.7985 4.82758 40.6096 13.5086 40.6096 22.4169C40.6096 31.3252 28.5979 57.8621 22.4311 57.8621Z" fill="#D83A3A"/>
</g>
<defs>
<clipPath id="clip0">
<rect width="45" height="64" fill="white"/>
</clipPath>
</defs>
</svg>
