<svg width="46" height="46" viewBox="0 0 46 46" fill="none" xmlns="http://www.w3.org/2000/svg">
<path d="M39.2464 29.7907L39.2479 29.7936C39.7651 30.7959 39.8521 31.9763 39.4295 33.0238C38.9982 34.0929 37.978 35.0685 36.5127 35.166L36.4292 35.1716L36.3454 35.1716L31.9688 35.1696C29.9569 35.2988 28.3848 34.421 27.2499 33.2641C27.0824 33.0935 26.9188 32.9211 26.7597 32.7499C26.6039 33.2258 26.3371 33.7313 25.8751 34.1701C24.9383 35.0599 23.7449 35.1409 23.1795 35.1667C23.1788 35.1668 23.1782 35.1668 23.1775 35.1668L23.0637 32.6694C20.8054 32.7759 18.662 32.4342 16.6709 31.295C14.9155 30.2906 13.5543 28.8727 12.3694 27.2676L39.2464 29.7907ZM39.2464 29.7907C38.8295 28.9855 38.3111 28.32 37.874 27.793L37.8692 27.7873C37.1038 26.87 36.2554 26.0666 35.5239 25.3738L35.4812 25.3335C35.3378 25.1976 35.1987 25.0659 35.0626 24.9358C35.3689 24.5179 35.6873 24.0979 36.0201 23.6591L36.0286 23.6478C36.4146 23.1389 36.8203 22.6038 37.216 22.0563L37.2165 22.0557L37.3021 21.9371C37.3022 21.937 37.3023 21.9369 37.3024 21.9368C37.3263 21.9036 37.3506 21.87 37.3753 21.836C38.0609 20.8882 38.9979 19.5931 39.5044 17.9985L39.5053 17.9956C39.6803 17.4427 39.9859 16.2177 39.2558 15.0351C38.5318 13.8625 37.3114 13.5813 36.7534 13.4861C36.3911 13.424 36.0602 13.4241 35.9139 13.4242L35.9042 13.4242L35.902 13.4242L31.063 13.4199C30.3891 13.4112 29.602 13.5566 28.8815 14.0669C28.1722 14.5693 27.7922 15.2392 27.5783 15.7773C27.3527 16.3441 27.1395 16.8646 26.9129 17.3537L26.9123 16.6452L26.9122 16.4768L26.8895 16.31C26.8329 15.8938 26.7084 15.0187 26.1274 14.2464C25.4493 13.3448 24.516 13.0188 23.8162 12.8806L23.5765 12.8333H23.3321H18.283C17.5985 12.8333 16.9152 12.9726 16.271 13.3286C15.6675 13.6621 15.2617 14.0994 15.012 14.3916L15.012 14.3916L15.0065 14.3981C14.9494 14.4654 14.8383 14.5981 14.7228 14.7737M39.2464 29.7907L14.7228 14.7737M14.7228 14.7737C14.557 14.5748 14.3645 14.3843 14.1411 14.2106C13.4814 13.6979 12.7017 13.4501 11.9055 13.4374C10.422 13.4128 8.93525 13.4106 7.44417 13.4395M7.44417 13.4395C7.44507 13.4395 7.44597 13.4395 7.44688 13.4395L7.49003 15.9391L7.44145 13.4396C7.44235 13.4396 7.44326 13.4396 7.44417 13.4395ZM17.5543 14.0463C17.5479 14.0451 17.5416 14.0439 17.5353 14.0427L17.5352 14.0426C17.5363 14.0428 17.5428 14.0439 17.5543 14.0463Z" fill="#4C75A3" stroke="#4C75A3" stroke-width="5"/>
</svg>
