<svg width="19" height="27" viewBox="0 0 19 27" fill="none" xmlns="http://www.w3.org/2000/svg">
                  <path d="M2.59375 3.54156C4.02366 2.7601 6.97326 1.19717 7.3324 1.19717H11.9713C12.3205 1.19717 14.4653 2.34443 15.014 2.94299C15.453 3.42185 16.527 5.50353 17.0092 6.48451L17.6577 10.0759L15.014 18.5057L10.3252 25.489L7.78133 24.641L3.64124 19.1043L1.14722 11.9215V7.43224C1.14722 7.113 2.11157 4.70544 2.59375 3.54156Z" fill="#D83A3A"/>
                  <path fillRule="evenodd" clipRule="evenodd" d="M0 9.18417C-2.14173e-06 13.4796 6.08317 26.9355 9.24249 26.9355C12.4018 26.9355 18.5556 13.8356 18.5556 9.18417C18.5556 4.53276 15.0662 -2.58839e-06 9.24249 0C3.41883 2.5884e-06 2.14173e-06 4.88873 0 9.18417ZM9.24938 24.3522C6.70651 24.3522 1.8103 12.8968 1.8103 9.43453C1.8103 5.97226 4.56204 2.03177 9.24938 2.03177C13.9367 2.03177 16.7453 5.68533 16.7453 9.43453C16.7453 13.1837 11.7922 24.3522 9.24938 24.3522Z" fill="#D83A3A"/>
                </svg>