<?xml version="1.0" standalone="no"?>
<!DOCTYPE svg PUBLIC "-//W3C//DTD SVG 20010904//EN"
 "http://www.w3.org/TR/2001/REC-SVG-20010904/DTD/svg10.dtd">
<svg version="1.0" xmlns="http://www.w3.org/2000/svg"
 width="700.000000pt" height="700.000000pt" viewBox="0 0 700.000000 700.000000"
 preserveAspectRatio="xMidYMid meet">
<metadata>
Created by potrace 1.11, written by Peter Selinger 2001-2013
</metadata>
<g transform="translate(0.000000,700.000000) scale(0.100000,-0.100000)"
fill="#000000" stroke="none">
<path d="M2598 6330 c-21 -11 -45 -31 -53 -43 -32 -50 -31 -231 1 -244 26 -10
88 15 122 48 l33 32 -3 111 -3 111 -30 2 c-16 2 -47 -6 -67 -17z"/>
<path d="M1041 5818 c-69 -34 -82 -64 -79 -188 3 -85 6 -105 18 -108 9 -1 52
24 97 56 219 158 364 155 424 -9 13 -34 28 -59 36 -59 8 0 55 30 106 66 126
91 183 116 262 116 119 -1 173 -55 195 -199 6 -37 14 -210 18 -383 l7 -315 23
-3 c35 -5 78 16 112 55 l30 34 0 322 c0 414 -14 484 -108 569 -52 47 -101 63
-195 63 -76 -1 -81 -2 -197 -63 -66 -34 -124 -62 -130 -62 -5 0 -37 25 -72 55
-82 72 -140 87 -236 62 -35 -9 -91 -33 -124 -53 -67 -41 -88 -39 -88 9 0 60
-28 70 -99 35z"/>
<path d="M2614 5824 c-17 -8 -44 -29 -60 -45 l-29 -30 -3 -453 c-2 -291 1
-462 7 -479 13 -34 58 -37 107 -6 67 41 64 15 64 540 0 426 -2 478 -16 483
-23 9 -36 7 -70 -10z"/>
<path d="M3034 5821 c-75 -34 -84 -55 -84 -202 0 -123 1 -129 20 -129 11 0 46
24 78 53 74 67 141 121 170 137 36 18 102 14 156 -10 60 -27 98 -21 143 22 69
66 25 123 -109 143 -65 10 -130 -14 -201 -75 -32 -28 -63 -50 -68 -50 -5 0 -9
18 -9 39 0 53 -16 91 -37 91 -10 0 -36 -9 -59 -19z"/>
<path d="M3755 5826 c-46 -20 -83 -69 -91 -123 -4 -25 -4 -182 -1 -347 4 -233
9 -318 22 -374 20 -87 61 -146 125 -182 40 -22 56 -25 155 -25 102 0 114 2
170 30 32 17 67 42 78 56 17 24 26 83 14 95 -3 3 -25 -5 -49 -18 -36 -19 -58
-23 -135 -23 -187 0 -203 45 -203 596 0 280 -2 318 -16 323 -22 9 -35 7 -69
-8z"/>
<path d="M4375 5826 c-16 -8 -42 -27 -58 -43 l-27 -29 2 -480 3 -479 33 -3
c20 -2 45 5 67 18 68 42 65 15 65 541 0 426 -2 478 -16 483 -22 9 -35 7 -69
-8z"/>
<path d="M4794 5821 c-73 -33 -84 -58 -84 -183 0 -135 5 -139 98 -71 37 27 83
59 103 71 111 67 246 71 298 8 7 -9 24 -41 36 -73 13 -32 30 -59 37 -61 7 -1
57 28 110 66 129 93 175 113 252 113 75 0 102 -9 143 -51 59 -61 67 -113 73
-500 l5 -345 33 -3 c40 -4 97 29 123 72 17 29 19 54 19 318 0 317 -9 415 -47
500 -45 102 -126 151 -248 152 -81 1 -130 -15 -243 -80 -43 -24 -82 -44 -88
-44 -6 0 -42 25 -78 55 -113 92 -190 97 -341 20 -49 -25 -93 -45 -97 -45 -5 0
-8 14 -8 31 0 39 -16 69 -38 69 -9 0 -35 -9 -58 -19z"/>
<path d="M1039 5488 c-78 -59 -79 -64 -79 -385 0 -155 3 -288 6 -297 14 -37
101 -11 148 45 l26 31 -2 316 -3 317 -26 3 c-17 2 -41 -8 -70 -30z"/>
<path d="M1609 5488 c-78 -59 -79 -64 -79 -388 0 -157 4 -291 9 -299 13 -21
85 -8 126 23 22 17 36 38 40 59 3 17 4 167 3 332 l-3 300 -26 3 c-17 2 -41 -8
-70 -30z"/>
<path d="M4783 5487 c-75 -58 -74 -54 -71 -392 l3 -300 35 -3 c45 -4 98 30
122 78 16 31 18 68 18 320 0 157 -3 295 -6 308 -9 32 -51 28 -101 -11z"/>
<path d="M5375 5502 c-17 -10 -45 -35 -63 -56 l-32 -37 2 -307 3 -307 29 -3
c38 -5 77 13 112 49 l29 30 3 302 c2 166 0 312 -3 325 -7 27 -38 29 -80 4z"/>
<path d="M3033 5461 c-87 -63 -84 -46 -81 -375 l3 -291 29 -3 c38 -5 77 13
112 49 l29 30 3 289 c3 299 0 330 -37 330 -10 0 -36 -13 -58 -29z"/>
<path d="M2588 4515 c-21 -14 -42 -34 -48 -45 -5 -10 -10 -66 -10 -125 0 -87
3 -107 16 -112 27 -10 88 15 122 50 l33 34 -3 109 -3 109 -35 3 c-24 2 -46 -5
-72 -23z"/>
<path d="M1040 4007 c-63 -33 -80 -70 -80 -179 0 -92 5 -118 24 -118 6 0 48
27 94 60 118 84 183 113 257 114 90 0 120 -19 161 -110 18 -41 39 -74 45 -74
6 0 50 29 98 64 47 35 109 75 136 89 104 52 200 44 266 -22 60 -59 70 -130 78
-520 l6 -326 23 -3 c35 -5 78 16 113 55 l30 35 -3 357 c-3 316 -6 362 -22 406
-49 133 -131 190 -273 190 -80 0 -84 -1 -195 -58 -62 -32 -122 -57 -133 -57
-12 0 -48 23 -80 50 -33 28 -75 55 -95 60 -79 22 -166 4 -264 -55 -33 -20 -65
-34 -72 -31 -7 3 -14 24 -16 48 -3 37 -6 43 -28 46 -14 2 -45 -8 -70 -21z"/>
<path d="M2615 4016 c-16 -7 -42 -27 -58 -43 l-27 -29 2 -480 3 -479 27 -3
c33 -4 103 31 123 62 13 20 15 86 13 502 l-3 479 -25 2 c-14 2 -38 -3 -55 -11z"/>
<path d="M3035 4016 c-17 -7 -43 -28 -58 -46 -27 -32 -28 -34 -25 -158 3 -109
5 -127 20 -130 9 -2 53 30 105 78 100 91 178 136 220 126 16 -4 52 -16 80 -27
63 -25 89 -21 138 23 29 25 35 37 33 62 -4 45 -79 81 -168 81 -75 -1 -103 -13
-181 -80 -29 -25 -56 -45 -61 -45 -4 0 -8 21 -8 46 0 81 -26 100 -95 70z"/>
<path d="M3755 4016 c-17 -7 -43 -28 -58 -45 l-27 -33 0 -348 c0 -368 5 -420
46 -501 47 -95 135 -135 279 -127 127 7 223 62 240 138 10 45 -6 53 -60 29
-104 -46 -240 -32 -284 29 -39 56 -44 104 -50 492 l-6 375 -25 2 c-14 2 -39
-3 -55 -11z"/>
<path d="M4380 4019 c-14 -6 -40 -24 -57 -42 l-33 -31 0 -478 c0 -417 2 -479
15 -484 29 -12 85 7 120 40 l35 34 -2 483 -3 484 -25 2 c-14 1 -36 -2 -50 -8z"/>
<path d="M4788 4010 c-70 -37 -79 -59 -76 -183 2 -69 7 -112 14 -114 6 -2 33
12 60 32 211 151 334 179 414 96 20 -21 42 -59 51 -86 8 -28 22 -51 30 -53 8
-1 59 30 114 69 112 81 159 104 226 114 101 15 183 -36 215 -136 15 -46 18
-103 21 -389 2 -184 6 -346 9 -359 4 -21 9 -23 44 -18 48 6 95 38 116 79 14
26 15 75 12 367 -4 315 -6 340 -27 404 -44 136 -153 207 -296 194 -67 -6 -130
-30 -216 -83 -77 -47 -99 -45 -167 16 -99 88 -186 92 -337 15 -49 -25 -93 -45
-97 -45 -5 0 -8 17 -8 38 0 64 -33 78 -102 42z"/>
<path d="M1075 3703 c-44 -23 -86 -64 -101 -100 -19 -44 -20 -593 -2 -611 28
-28 97 -5 142 48 l26 32 0 313 c0 290 -1 315 -18 324 -12 6 -27 4 -47 -6z"/>
<path d="M1645 3701 c-51 -23 -93 -68 -105 -112 -14 -46 -13 -565 0 -590 7
-11 21 -19 37 -19 32 0 109 44 123 70 16 30 13 645 -3 658 -9 8 -24 6 -52 -7z"/>
<path d="M4831 3709 c-39 -16 -98 -67 -110 -96 -8 -20 -11 -120 -9 -328 l3
-300 30 -3 c40 -3 94 27 123 68 22 32 22 38 22 336 0 262 -2 305 -16 318 -8 9
-16 16 -17 15 -1 0 -13 -5 -26 -10z"/>
<path d="M5410 3712 c-35 -12 -100 -67 -114 -97 -23 -49 -24 -623 -1 -631 29
-12 87 8 123 41 l37 33 3 304 c2 167 0 313 -2 324 -6 24 -23 34 -46 26z"/>
<path d="M3045 3662 c-17 -10 -45 -35 -63 -56 l-32 -37 2 -292 3 -292 29 -3
c38 -5 77 13 112 49 l29 30 3 287 c2 158 0 297 -3 310 -7 27 -38 29 -80 4z"/>
<path d="M2615 2721 c-22 -10 -51 -31 -65 -45 -22 -25 -25 -38 -28 -121 -5
-117 5 -140 55 -132 43 7 98 43 115 76 19 36 18 219 -2 231 -21 13 -29 12 -75
-9z"/>
<path d="M1042 2204 c-18 -9 -44 -30 -58 -47 -23 -28 -25 -34 -22 -141 3 -91
6 -111 19 -114 8 -1 49 22 90 51 225 164 369 163 431 -5 12 -33 27 -58 35 -58
8 0 55 30 106 66 125 91 183 117 261 117 100 0 150 -38 183 -137 14 -43 17
-106 21 -396 2 -221 7 -349 14 -357 25 -30 97 -6 142 48 l27 32 -3 356 c-3
305 -6 364 -21 408 -24 72 -73 132 -132 162 -43 22 -63 26 -142 26 l-92 0
-111 -57 c-60 -32 -117 -58 -126 -58 -9 0 -39 20 -68 45 -65 55 -111 75 -175
75 -63 0 -129 -22 -204 -67 -32 -19 -61 -32 -64 -29 -4 4 -9 25 -12 49 -5 38
-9 42 -36 45 -16 1 -45 -5 -63 -14z"/>
<path d="M2597 2199 c-21 -11 -47 -34 -57 -52 -19 -31 -20 -53 -20 -493 0
-513 -3 -492 66 -481 51 9 101 50 114 95 13 48 14 891 0 926 -12 32 -48 34
-103 5z"/>
<path d="M3018 2200 c-63 -34 -68 -48 -68 -197 0 -126 1 -133 20 -133 11 0 57
34 102 75 145 132 195 150 297 106 66 -28 103 -23 148 21 57 55 41 102 -46
133 -98 34 -186 11 -282 -74 -26 -22 -49 -37 -53 -34 -3 3 -6 27 -6 53 0 25
-5 51 -12 58 -17 17 -58 14 -100 -8z"/>
<path d="M3740 2201 c-19 -10 -44 -30 -55 -45 -19 -26 -20 -44 -23 -319 -4
-401 11 -518 79 -600 50 -60 99 -80 209 -85 80 -3 104 0 154 18 83 32 128 75
130 126 1 46 -6 47 -99 14 -47 -17 -73 -21 -118 -16 -73 7 -109 28 -139 80
-23 41 -23 45 -28 431 -3 215 -9 396 -13 403 -12 18 -57 15 -97 -7z"/>
<path d="M4355 2197 c-76 -43 -75 -35 -75 -540 0 -290 4 -455 10 -468 25 -46
138 -1 166 67 11 27 14 118 14 473 0 262 -4 450 -10 465 -12 33 -50 34 -105 3z"/>
<path d="M4780 2199 c-64 -38 -70 -52 -70 -177 0 -91 3 -114 15 -118 9 -4 43
15 82 44 146 107 234 140 324 121 57 -12 82 -37 113 -115 13 -32 30 -60 38
-62 7 -1 57 29 111 67 136 97 174 114 258 114 55 0 75 -5 101 -23 91 -62 99
-105 107 -530 l6 -345 33 -3 c40 -4 97 29 123 72 17 29 19 54 19 338 0 394
-13 470 -94 556 -56 60 -99 77 -203 77 l-92 0 -113 -58 c-62 -32 -121 -57
-130 -57 -10 0 -41 21 -69 46 -65 58 -103 74 -174 74 -62 0 -130 -23 -205 -69
-28 -17 -55 -31 -60 -31 -6 0 -10 15 -10 34 0 19 -3 41 -6 50 -9 23 -62 20
-104 -5z"/>
<path d="M1045 1877 c-84 -58 -85 -60 -85 -389 0 -157 3 -293 6 -302 15 -40
138 6 163 61 7 16 11 132 11 331 0 366 0 365 -95 299z"/>
<path d="M1611 1873 c-81 -60 -81 -60 -81 -386 0 -157 3 -292 6 -301 8 -22 56
-20 104 4 72 37 70 27 70 386 0 284 -2 323 -16 328 -25 10 -29 8 -83 -31z"/>
<path d="M4799 1881 c-25 -15 -55 -41 -67 -56 -22 -28 -22 -32 -20 -339 l3
-311 29 -3 c38 -5 77 13 112 49 l29 30 3 316 c3 374 4 373 -89 314z"/>
<path d="M5369 1882 c-89 -58 -84 -33 -84 -391 l0 -316 29 -3 c40 -5 81 15
116 55 l30 34 0 312 c0 369 1 367 -91 309z"/>
<path d="M3036 1848 c-88 -58 -86 -52 -84 -383 l3 -290 29 -3 c38 -5 77 13
112 49 l29 30 3 299 c2 263 1 300 -13 314 -22 21 -24 21 -79 -16z"/>
</g>
</svg>
