<?xml version="1.0" standalone="no"?>
<!DOCTYPE svg PUBLIC "-//W3C//DTD SVG 20010904//EN"
 "http://www.w3.org/TR/2001/REC-SVG-20010904/DTD/svg10.dtd">
<svg version="1.0" xmlns="http://www.w3.org/2000/svg"
 width="700.000000pt" height="700.000000pt" viewBox="0 0 700.000000 700.000000"
 preserveAspectRatio="xMidYMid meet">
<metadata>
Created by potrace 1.11, written by Peter Selinger 2001-2013
</metadata>
<g transform="translate(0.000000,700.000000) scale(0.100000,-0.100000)"
fill="#000000" stroke="none">
<path d="M3397 6124 c-1 -1 -40 -5 -87 -9 -319 -25 -634 -144 -891 -337 -85
-64 -235 -208 -299 -286 -166 -205 -308 -513 -346 -748 -3 -20 -8 -46 -11 -58
-2 -11 -6 -82 -9 -156 -3 -104 1 -161 16 -250 34 -192 110 -461 200 -700 17
-47 40 -107 50 -135 82 -221 339 -776 450 -970 13 -22 36 -65 53 -95 109 -199
329 -539 419 -645 9 -11 33 -40 53 -65 193 -234 380 -364 511 -356 83 6 161
44 270 132 113 92 262 256 375 417 32 45 62 87 66 92 91 115 340 547 483 840
289 589 470 1099 535 1505 13 83 13 326 0 415 -9 58 -52 225 -75 296 -102 303
-339 616 -602 797 -249 171 -548 278 -863 308 -67 6 -293 13 -298 8z m328
-377 c11 -2 40 -8 65 -12 416 -66 795 -343 983 -721 59 -120 106 -271 124
-404 13 -102 7 -327 -11 -380 -3 -8 -8 -33 -11 -55 -10 -68 -64 -263 -122
-434 -142 -427 -390 -962 -608 -1311 -256 -413 -475 -638 -633 -654 -162 -16
-399 223 -671 677 -88 147 -261 483 -334 647 -22 52 -54 124 -76 173 -50 112
-154 388 -200 528 -127 390 -162 637 -121 839 6 30 14 68 17 84 9 51 64 199
106 281 172 343 486 602 852 702 146 40 246 51 435 48 102 -1 194 -5 205 -8z"/>
</g>
</svg>
